<svg width="265" height="176" viewBox="0 0 265 176" fill="none" xmlns="http://www.w3.org/2000/svg">
<rect width="265" height="176" rx="12" fill="#263842"/>
<path d="M166.073 151V116.534H165.049L159.703 129.16H152.082L160.215 111.188H173.353V151H166.073ZM191.789 151V116.534H190.765L185.419 129.16H177.798L185.931 111.188H199.069V151H191.789ZM205.22 151V146.223C205.22 137.919 209.372 134.165 216.879 131.833L220.69 130.639C224.842 129.331 227.173 126.942 227.173 123.302V123.075C227.173 119.321 224.387 116.875 219.95 116.875C215.514 116.875 212.614 119.321 212.614 123.814V124.838H205.334V123.928C205.334 115.34 211.76 110.391 219.95 110.391C228.14 110.391 234.453 115.34 234.453 122.961V123.53C234.453 131.208 229.335 134.961 222.567 137.066L218.927 138.203C214.035 139.739 212.67 141.388 212.67 144.289V144.516H234.112V151H205.22Z" fill="#F3EEEA"/>
<path d="M19.5717 40V23.3309H30.2875V26.1885H22.715V30.1652H29.6207V33.0228H22.715V37.1424H30.4304V40H19.5717ZM32.8524 40V28.1888H35.8052V29.4747H36.2339C36.6387 28.6888 37.5674 27.9983 39.139 27.9983C40.8298 27.9983 41.7823 28.7126 42.33 29.7604H42.7586C43.2825 28.7603 44.1874 27.9983 45.9972 27.9983C48.188 27.9983 49.9501 29.3794 49.9501 32.237V40H46.9497V32.4513C46.9497 31.1654 46.2353 30.4986 45.0447 30.4986C43.6635 30.4986 42.9015 31.4035 42.9015 33.0228V40H39.9011V32.4513C39.9011 31.1654 39.1867 30.4986 37.996 30.4986C36.6149 30.4986 35.8529 31.4035 35.8529 33.0228V40H32.8524ZM58.5589 40.3334C55.0108 40.3334 52.6057 37.9521 52.6057 34.2373V33.9515C52.6057 30.2367 54.987 27.8554 58.5113 27.8554C61.988 27.8554 64.2502 30.3319 64.2502 33.9515V34.9755H55.6537C55.7252 36.5947 56.9873 37.714 58.6542 37.714C60.3211 37.714 61.0117 36.8567 61.4165 35.9518L63.8692 37.2377C63.2024 38.4998 61.7975 40.3334 58.5589 40.3334ZM55.6775 32.737H61.2022C61.0593 31.3797 60.0353 30.4748 58.4875 30.4748C56.8682 30.4748 55.8919 31.3797 55.6775 32.737ZM66.9208 40V28.1888H69.8736V29.5223H70.3022C70.6356 28.5698 71.4929 28.1411 72.5883 28.1411H74.0171V30.8082H72.5407C71.0166 30.8082 69.9212 31.6178 69.9212 33.2847V40H66.9208ZM75.3722 34.142V33.761C75.3722 30.0462 77.8249 27.8554 80.7539 27.8554C82.8971 27.8554 83.8972 28.8079 84.4211 29.6175H84.8497V28.1888H87.8026V42.0955C87.8026 43.7148 86.7548 44.7626 85.1831 44.7626H77.2772V42.1432H84.1354C84.564 42.1432 84.8021 41.905 84.8021 41.4288V38.3569H84.3735C83.8972 39.1427 82.9209 40.0476 80.7539 40.0476C77.8487 40.0476 75.3722 37.8568 75.3722 34.142ZM81.6112 37.4282C83.4448 37.4282 84.8497 36.2137 84.8497 34.0706V33.8324C84.8497 31.6893 83.4686 30.4748 81.6112 30.4748C79.7538 30.4748 78.3726 31.6893 78.3726 33.8324V34.0706C78.3726 36.2137 79.7776 37.4282 81.6112 37.4282ZM96.5109 40.3334C92.9627 40.3334 90.5576 37.9521 90.5576 34.2373V33.9515C90.5576 30.2367 92.9389 27.8554 96.4632 27.8554C99.9399 27.8554 102.202 30.3319 102.202 33.9515V34.9755H93.6057C93.6771 36.5947 94.9392 37.714 96.6061 37.714C98.273 37.714 98.9636 36.8567 99.3684 35.9518L101.821 37.2377C101.154 38.4998 99.7494 40.3334 96.5109 40.3334ZM93.6295 32.737H99.1541C99.0112 31.3797 97.9873 30.4748 96.4394 30.4748C94.8201 30.4748 93.8438 31.3797 93.6295 32.737ZM104.873 40V28.1888H107.826V29.7366H108.254C108.635 28.927 109.588 27.9983 111.707 27.9983C114.469 27.9983 116.303 30.0224 116.303 32.9514V40H113.303V33.1895C113.303 31.4035 112.398 30.5224 110.778 30.5224C108.945 30.5224 107.873 31.8083 107.873 33.9991V40H104.873ZM125.095 40.3334C121.666 40.3334 118.975 38.1188 118.975 34.2611V33.9277C118.975 30.07 121.666 27.8554 125.095 27.8554C128.476 27.8554 130.453 29.808 130.953 32.4275L128.048 33.0466C127.857 31.6178 126.976 30.5224 125.166 30.5224C123.357 30.5224 121.975 31.7369 121.975 33.9753V34.2134C121.975 36.4519 123.357 37.6663 125.166 37.6663C126.976 37.6663 127.857 36.6424 128.119 35.1183L131.024 35.8089C130.405 38.3569 128.476 40.3334 125.095 40.3334ZM134.785 44.7626V42.1432H141.215C141.644 42.1432 141.882 41.905 141.882 41.4288V38.4522H141.453C141.072 39.2618 140.12 40.1905 138 40.1905C135.238 40.1905 133.404 38.1664 133.404 35.2374V28.1888H136.405V34.9993C136.405 36.7852 137.31 37.6663 138.929 37.6663C140.762 37.6663 141.834 36.3804 141.834 34.1896V28.1888H144.834V42.0955C144.834 43.7148 143.787 44.7626 142.215 44.7626H134.785ZM19.6669 70V58.1888H22.6197V59.7366H23.0484C23.4294 58.927 24.3819 57.9983 26.5012 57.9983C29.2635 57.9983 31.0971 60.0224 31.0971 62.9514V70H28.0967V63.1895C28.0967 61.4035 27.1918 60.5224 25.5725 60.5224C23.7389 60.5224 22.6673 61.8083 22.6673 63.9991V70H19.6669ZM38.6553 70.1905C35.893 70.1905 34.0594 68.1664 34.0594 65.2374V58.1888H37.0599V64.9993C37.0599 66.7852 37.9648 67.6663 39.5841 67.6663C41.4177 67.6663 42.4892 66.3804 42.4892 64.1896V58.1888H45.4897V70H42.5369V68.4522H42.1082C41.7272 69.2618 40.7747 70.1905 38.6553 70.1905ZM48.8285 70V58.1888H51.7813V59.4747H52.21C52.6148 58.6888 53.5435 57.9983 55.1151 57.9983C56.8059 57.9983 57.7584 58.7126 58.3061 59.7604H58.7347C59.2586 58.7603 60.1635 57.9983 61.9733 57.9983C64.1641 57.9983 65.9262 59.3794 65.9262 62.237V70H62.9258V62.4513C62.9258 61.1654 62.2114 60.4986 61.0208 60.4986C59.6396 60.4986 58.8776 61.4035 58.8776 63.0228V70H55.8772V62.4513C55.8772 61.1654 55.1628 60.4986 53.9721 60.4986C52.591 60.4986 51.829 61.4035 51.829 63.0228V70H48.8285ZM76.2495 70.3334C74.1064 70.3334 73.0824 69.4761 72.5347 68.5712H72.1061V70H69.1533V53.3309H72.1537V59.5461H72.5823C73.0824 58.7126 74.1064 57.8554 76.2495 57.8554C79.1071 57.8554 81.5837 60.0462 81.5837 63.9039V64.2849C81.5837 68.1426 79.0833 70.3334 76.2495 70.3334ZM75.3446 67.714C77.1782 67.714 78.5832 66.4995 78.5832 64.2134V63.9753C78.5832 61.6893 77.2021 60.4748 75.3446 60.4748C73.4872 60.4748 72.1061 61.6893 72.1061 63.9753V64.2134C72.1061 66.4995 73.511 67.714 75.3446 67.714ZM89.7204 70.3334C86.1723 70.3334 83.7672 67.9521 83.7672 64.2373V63.9515C83.7672 60.2367 86.1485 57.8554 89.6728 57.8554C93.1495 57.8554 95.4117 60.3319 95.4117 63.9515V64.9755H86.8153C86.8867 66.5947 88.1488 67.714 89.8157 67.714C91.4826 67.714 92.1732 66.8567 92.578 65.9518L95.0307 67.2377C94.364 68.4998 92.959 70.3334 89.7204 70.3334ZM86.8391 62.737H92.3637C92.2208 61.3797 91.1968 60.4748 89.649 60.4748C88.0297 60.4748 87.0534 61.3797 86.8391 62.737ZM98.0823 70V58.1888H101.035V59.5223H101.464C101.797 58.5698 102.654 58.1411 103.75 58.1411H105.179V60.8082H103.702C102.178 60.8082 101.083 61.6178 101.083 63.2847V70H98.0823Z" fill="#F3EEEA"/>
</svg>
