<svg width="106" height="54" viewBox="0 0 106 54" fill="none" xmlns="http://www.w3.org/2000/svg">
<path d="M101.726 16.9706C102.274 19.2477 101.469 21.7588 99.4965 24.3623C97.5244 26.9647 94.3989 29.6399 90.3514 32.232C82.2576 37.4153 70.5058 42.2475 57.0148 45.4944C43.5238 48.7414 30.8603 49.7853 21.2945 48.8522C16.5108 48.3856 12.5104 47.4254 9.57016 46.0053C6.62864 44.5845 4.7693 42.7147 4.22126 40.4376C3.67321 38.1604 4.47817 35.6494 6.45115 33.0458C8.42327 30.4434 11.5487 27.7682 15.5963 25.1761C23.69 19.9929 35.4418 15.1606 48.9328 11.9137C62.4238 8.66674 75.0873 7.62283 84.6531 8.55591C89.4368 9.02251 93.4372 9.98273 96.3775 11.4029C99.319 12.8236 101.178 14.6934 101.726 16.9706Z" stroke="#D5583C" stroke-width="0.29885"/>
<path d="M10.5284 22.2562C9.6424 22.2562 8.84498 22.0634 8.13616 21.6777C7.42734 21.2816 6.86966 20.6926 6.46313 19.9109C6.0566 19.1186 5.85334 18.1388 5.85334 16.9713C5.85334 15.8456 6.06182 14.8866 6.47877 14.0944C6.90614 13.2917 7.52115 12.6819 8.32378 12.265C9.12642 11.8376 10.0854 11.6239 11.2008 11.6239C12.4725 11.6239 13.4888 11.848 14.2497 12.2962C15.0211 12.7445 15.61 13.4637 16.0166 14.454L12.6236 15.6736C12.5506 15.1836 12.3891 14.8449 12.1389 14.6572C11.8992 14.4592 11.5969 14.3602 11.232 14.3602C10.8359 14.3602 10.5128 14.454 10.2626 14.6416C10.0229 14.8292 9.84566 15.1159 9.731 15.5016C9.62676 15.8768 9.57464 16.3563 9.57464 16.9401C9.57464 17.5863 9.6424 18.1075 9.77791 18.5036C9.92384 18.8997 10.1375 19.1864 10.419 19.3636C10.7108 19.5304 11.0757 19.6138 11.5135 19.6138C11.722 19.6138 11.9096 19.5929 12.0764 19.5512C12.2536 19.5095 12.4047 19.447 12.5298 19.3636C12.6653 19.2698 12.7643 19.1551 12.8269 19.0196C12.8998 18.8841 12.9363 18.7225 12.9363 18.5349V18.5193H11.2008V16.2834H15.9853V22.0999H13.5774L13.2803 19.3323L13.8432 19.9421C13.666 20.6822 13.2959 21.2555 12.7331 21.6621C12.1806 22.0582 11.4457 22.2562 10.5284 22.2562ZM20.8899 11.1548V18.9883C20.8899 19.3011 20.9368 19.5304 21.0306 19.6763C21.1244 19.8222 21.2912 19.8952 21.531 19.8952C21.6456 19.8952 21.7447 19.89 21.828 19.8796C21.9219 19.8587 22.0105 19.8379 22.0939 19.817L21.9375 21.7559C21.7394 21.9018 21.4528 22.0217 21.0775 22.1155C20.7127 22.2093 20.3531 22.2562 19.9987 22.2562C19.0293 22.2562 18.3361 22.0477 17.9191 21.6308C17.5022 21.2138 17.2937 20.5154 17.2937 19.5356V11.1548H20.8899ZM26.688 14.1256C27.5636 14.1256 28.3245 14.2872 28.9708 14.6103C29.6275 14.9231 30.1382 15.3817 30.5031 15.9863C30.8679 16.5909 31.0503 17.3257 31.0503 18.1909C31.0503 19.0457 30.8679 19.7806 30.5031 20.3956C30.1382 21.0001 29.6275 21.464 28.9708 21.7871C28.3245 22.0999 27.5636 22.2562 26.688 22.2562C25.8228 22.2562 25.0618 22.0999 24.4051 21.7871C23.7484 21.464 23.2377 21.0001 22.8728 20.3956C22.508 19.7806 22.3256 19.0457 22.3256 18.1909C22.3256 17.3257 22.508 16.5909 22.8728 15.9863C23.2377 15.3817 23.7484 14.9231 24.4051 14.6103C25.0618 14.2872 25.8228 14.1256 26.688 14.1256ZM26.688 16.5492C26.5316 16.5492 26.3961 16.5961 26.2814 16.6899C26.1668 16.7733 26.0782 16.9348 26.0156 17.1746C25.9635 17.4143 25.9374 17.7531 25.9374 18.1909C25.9374 18.6287 25.9635 18.9675 26.0156 19.2072C26.0782 19.4366 26.1668 19.5981 26.2814 19.692C26.3961 19.7858 26.5316 19.8327 26.688 19.8327C26.8547 19.8327 26.9902 19.7858 27.0945 19.692C27.2091 19.5981 27.2925 19.4366 27.3447 19.2072C27.4072 18.9675 27.4385 18.6287 27.4385 18.1909C27.4385 17.7531 27.4072 17.4143 27.3447 17.1746C27.2925 16.9348 27.2091 16.7733 27.0945 16.6899C26.9902 16.5961 26.8547 16.5492 26.688 16.5492ZM37.7839 22.2562C37.2315 22.2562 36.752 22.1207 36.3455 21.8497C35.9389 21.5682 35.621 21.1878 35.3917 20.7083C35.1624 20.2184 35.0321 19.6711 35.0008 19.0665L35.2979 18.66L35.1259 22.0999H31.9675V11.1548H35.5637V17.2059L35.251 16.7368C35.3552 15.9863 35.6158 15.3661 36.0327 14.8761C36.4601 14.3758 37.0908 14.1256 37.9247 14.1256C38.5084 14.1256 39.014 14.2872 39.4413 14.6103C39.8687 14.9335 40.1971 15.4025 40.4264 16.0176C40.6557 16.6221 40.7704 17.3622 40.7704 18.2378C40.7704 19.0822 40.6557 19.8066 40.4264 20.4112C40.1971 21.0054 39.8583 21.464 39.4101 21.7871C38.9723 22.0999 38.4302 22.2562 37.7839 22.2562ZM36.3298 19.7389C36.58 19.7389 36.778 19.6346 36.924 19.4261C37.0699 19.2177 37.1429 18.8059 37.1429 18.1909C37.1429 17.5759 37.0699 17.1694 36.924 16.9713C36.778 16.7629 36.58 16.6586 36.3298 16.6586C36.1526 16.6586 36.0067 16.7159 35.892 16.8306C35.7774 16.9453 35.694 17.1173 35.6419 17.3466C35.5897 17.5759 35.5637 17.8574 35.5637 18.1909C35.5637 18.5453 35.5949 18.8372 35.6575 19.0665C35.72 19.2958 35.8086 19.4678 35.9233 19.5825C36.038 19.6867 36.1735 19.7389 36.3298 19.7389ZM45.8855 17.2215C45.8855 16.9818 45.8281 16.7941 45.7135 16.6586C45.6092 16.5231 45.4424 16.4554 45.2131 16.4554C44.9942 16.4554 44.8118 16.5179 44.6659 16.643C44.5199 16.7681 44.4365 17.0182 44.4157 17.3935L41.3824 16.9557C41.4553 16.0905 41.8306 15.4025 42.5081 14.8918C43.1857 14.381 44.1707 14.1256 45.4633 14.1256C46.3702 14.1256 47.1155 14.2507 47.6992 14.5009C48.2934 14.7511 48.7312 15.1003 49.0126 15.5485C49.3045 15.9967 49.4504 16.5179 49.4504 17.1121V19.5356C49.4504 19.963 49.6537 20.1767 50.0602 20.1767C50.1749 20.1767 50.2635 20.161 50.326 20.1298L50.1696 21.9748C49.784 22.1624 49.3201 22.2562 48.7781 22.2562C48.2881 22.2562 47.8503 22.1885 47.4647 22.0529C47.0894 21.907 46.7923 21.6933 46.5734 21.4119C46.365 21.12 46.2607 20.75 46.2607 20.3017V20.1454H46.6047C46.5943 20.5415 46.464 20.9011 46.2138 21.2243C45.9741 21.537 45.6509 21.7871 45.2444 21.9748C44.8379 22.1624 44.374 22.2562 43.8528 22.2562C43.3003 22.2562 42.8313 22.1728 42.4456 22.006C42.0703 21.8393 41.7837 21.5995 41.5856 21.2868C41.3876 20.9741 41.2886 20.604 41.2886 20.1767C41.2886 19.6033 41.471 19.1395 41.8358 18.7851C42.2006 18.4202 42.727 18.1701 43.415 18.0346L46.1356 17.4717L46.12 18.7382L45.2757 18.9414C45.0568 18.9936 44.9004 19.0822 44.8066 19.2072C44.7128 19.3219 44.6659 19.4678 44.6659 19.645C44.6659 19.8118 44.718 19.9473 44.8222 20.0516C44.9265 20.1558 45.0724 20.2079 45.26 20.2079C45.3434 20.2079 45.4216 20.1923 45.4946 20.161C45.578 20.1298 45.6457 20.0828 45.6978 20.0203C45.7604 19.9578 45.8073 19.8848 45.8385 19.8014C45.8698 19.7076 45.8855 19.6033 45.8855 19.4887V17.2215ZM54.4365 11.1548V18.9883C54.4365 19.3011 54.4834 19.5304 54.5772 19.6763C54.671 19.8222 54.8378 19.8952 55.0776 19.8952C55.1922 19.8952 55.2912 19.89 55.3746 19.8796C55.4685 19.8587 55.5571 19.8379 55.6404 19.817L55.4841 21.7559C55.286 21.9018 54.9994 22.0217 54.6241 22.1155C54.2593 22.2093 53.8997 22.2562 53.5453 22.2562C52.5758 22.2562 51.8827 22.0477 51.4657 21.6308C51.0488 21.2138 50.8403 20.5154 50.8403 19.5356V11.1548H54.4365ZM43.5391 40.0999H39.8178L39.3487 38.1298H36.5656L36.0809 40.0999H32.4534L35.7994 29.7803H40.1774L43.5391 40.0999ZM37.1128 35.8626H38.8171L37.9728 32.282L37.1128 35.8626ZM43.9996 40.0999V32.282H47.2362L47.3926 35.5968L47.033 35.2059C47.1059 34.5596 47.2675 34.0071 47.5177 33.5485C47.7679 33.0898 48.1014 32.7406 48.5184 32.5009C48.9457 32.2507 49.4513 32.1256 50.035 32.1256C50.5562 32.1256 50.9992 32.2299 51.3641 32.4383C51.7289 32.6364 52.0051 32.9335 52.1928 33.3296C52.3908 33.7153 52.4898 34.1895 52.4898 34.7524V40.0999H48.8936V35.6437C48.8936 35.3101 48.8467 35.086 48.7529 34.9713C48.6591 34.8462 48.5184 34.7837 48.3307 34.7837C48.164 34.7837 48.0232 34.8254 47.9086 34.9088C47.8043 34.9818 47.7262 35.1068 47.674 35.284C47.6219 35.4613 47.5959 35.6906 47.5959 35.972V40.0999H43.9996ZM57.2918 40.2562C56.5309 40.2562 55.796 40.152 55.0872 39.9435C54.3888 39.735 53.779 39.4223 53.2578 39.0054L54.54 37.1447C54.8214 37.3949 55.1914 37.619 55.6501 37.817C56.1087 38.0047 56.5674 38.0985 57.026 38.0985C57.2032 38.0985 57.3596 38.0776 57.4951 38.0359C57.641 37.9942 57.714 37.9213 57.714 37.817C57.714 37.7336 57.6723 37.6711 57.5889 37.6294C57.516 37.5877 57.3492 37.546 57.0886 37.5043L56.5257 37.3949C55.3895 37.176 54.5869 36.8633 54.1178 36.4567C53.6487 36.0502 53.4142 35.5029 53.4142 34.815C53.4142 34.3876 53.5497 33.9706 53.8207 33.5641C54.1022 33.1472 54.5452 32.8032 55.1498 32.5322C55.7543 32.2611 56.5518 32.1256 57.542 32.1256C58.3551 32.1256 59.0847 32.2299 59.731 32.4383C60.3773 32.6364 60.9037 32.9126 61.3102 33.267L60.075 35.0495C59.7831 34.8202 59.4079 34.6378 58.9492 34.5023C58.501 34.3563 58.0893 34.2834 57.714 34.2834C57.5472 34.2834 57.4117 34.2938 57.3075 34.3146C57.2032 34.3355 57.1251 34.3668 57.0729 34.4084C57.0313 34.4397 57.0104 34.4814 57.0104 34.5335C57.0104 34.6065 57.0625 34.6743 57.1668 34.7368C57.271 34.7993 57.4743 34.8567 57.7766 34.9088L58.8867 35.0964C59.731 35.2319 60.346 35.5029 60.7317 35.9095C61.1278 36.316 61.3259 36.8163 61.3259 37.4105C61.3259 37.9213 61.1851 38.3956 60.9037 38.8334C60.6327 39.2607 60.2001 39.6047 59.6059 39.8653C59.0222 40.1259 58.2508 40.2562 57.2918 40.2562ZM72.6475 32.282H76.3688L74.2423 40.0999H69.7705L68.8636 36.2535L67.9568 40.0999H63.4849L61.3585 32.282H65.0798L65.971 37.645L67.0968 32.282H70.6305L71.7562 37.645L72.6475 32.282ZM80.8506 40.2562C79.9125 40.2562 79.1098 40.0999 78.4427 39.7871C77.7756 39.464 77.2648 39.0001 76.9104 38.3956C76.556 37.791 76.3788 37.0561 76.3788 36.1909C76.3788 35.3257 76.556 34.5909 76.9104 33.9863C77.2752 33.3817 77.7808 32.9231 78.4271 32.6103C79.0838 32.2872 79.8447 32.1256 80.7099 32.1256C81.5959 32.1256 82.3464 32.2872 82.9614 32.6103C83.5869 32.9231 84.0612 33.3661 84.3843 33.9394C84.7074 34.5127 84.869 35.1798 84.869 35.9407C84.869 36.1075 84.8586 36.2795 84.8377 36.4567C84.8273 36.6339 84.8117 36.7747 84.7908 36.8789H78.6929V35.5499H83.2273L81.523 36.2222C81.523 35.6593 81.4708 35.2319 81.3666 34.9401C81.2728 34.6482 81.0591 34.5023 80.7255 34.5023C80.5066 34.5023 80.3242 34.5544 80.1783 34.6586C80.0428 34.7629 79.9437 34.9453 79.8812 35.2059C79.8187 35.456 79.7874 35.8052 79.7874 36.2535C79.7874 36.7017 79.8291 37.0457 79.9125 37.2854C79.9959 37.5147 80.1157 37.6711 80.2721 37.7545C80.4389 37.8275 80.6474 37.8639 80.8975 37.8639C81.1685 37.8639 81.377 37.8066 81.523 37.692C81.6793 37.5669 81.7836 37.4001 81.8357 37.1916L84.7283 37.9734C84.6136 38.4842 84.3582 38.9115 83.9621 39.2555C83.566 39.5891 83.0917 39.8393 82.5393 40.006C81.9972 40.1728 81.4344 40.2562 80.8506 40.2562ZM85.7458 40.0999V32.282H88.9824L89.0606 34.2365C89.2378 33.5902 89.5088 33.0794 89.8737 32.7042C90.2489 32.3185 90.744 32.1256 91.3591 32.1256C91.5988 32.1256 91.7812 32.1465 91.9063 32.1882C92.0314 32.2299 92.12 32.2716 92.1721 32.3133L91.875 35.2059C91.7812 35.1642 91.6457 35.1277 91.4685 35.0964C91.2913 35.0651 91.0985 35.0495 90.89 35.0495C90.5773 35.0495 90.3062 35.1016 90.0769 35.2059C89.8476 35.2997 89.6652 35.4404 89.5297 35.628C89.4046 35.8157 89.342 36.0554 89.342 36.3473V40.0999H85.7458Z" fill="#1B2F3A"/>
</svg>
